<?xml version="1.0" encoding="UTF-8" standalone="no"?>
<svg
   xmlns:dc="http://purl.org/dc/elements/1.1/"
   xmlns:cc="http://creativecommons.org/ns#"
   xmlns:rdf="http://www.w3.org/1999/02/22-rdf-syntax-ns#"
   xmlns:svg="http://www.w3.org/2000/svg"
   xmlns="http://www.w3.org/2000/svg"
   xmlns:sodipodi="http://sodipodi.sourceforge.net/DTD/sodipodi-0.dtd"
   xmlns:inkscape="http://www.inkscape.org/namespaces/inkscape"
   width="210mm"
   height="297mm"
   viewBox="0 0 210 297"
   version="1.1"
   id="svg8"
   inkscape:version="1.0.2-2 (e86c870879, 2021-01-15)"
   sodipodi:docname="mesa4.svg">
  <defs
     id="defs2" />
  <sodipodi:namedview
     id="base"
     pagecolor="#ffffff"
     bordercolor="#666666"
     borderopacity="1.0"
     inkscape:pageopacity="0.0"
     inkscape:pageshadow="2"
     inkscape:zoom="0.49497475"
     inkscape:cx="-394.95961"
     inkscape:cy="339.34396"
     inkscape:document-units="mm"
     inkscape:current-layer="layer1"
     inkscape:document-rotation="0"
     showgrid="false"
     inkscape:window-width="1920"
     inkscape:window-height="1001"
     inkscape:window-x="-9"
     inkscape:window-y="-9"
     inkscape:window-maximized="1" />
  <metadata
     id="metadata5">
    <rdf:RDF>
      <cc:Work
         rdf:about="">
        <dc:format>image/svg+xml</dc:format>
        <dc:type
           rdf:resource="http://purl.org/dc/dcmitype/StillImage" />
        <dc:title></dc:title>
      </cc:Work>
    </rdf:RDF>
  </metadata>
  <g
     inkscape:label="Capa 1"
     inkscape:groupmode="layer"
     id="layer1">
    <path
       id="rect833"
       style="fill:#ffffff;stroke:#000000;stroke-width:0.875641;stroke-miterlimit:0;stroke-opacity:1;paint-order:markers stroke fill"
       d="m 67.959808,84.7108 h 56.848242 v 96.0377 H 67.959808 Z" />
    <path
       id="path928"
       style="fill:#ffffff;stroke:#000000;stroke-width:1.5211;stroke-miterlimit:0;stroke-opacity:1;paint-order:markers stroke fill"
       d="m 158.42249,110.33556 a 15.33097,14.575017 0 0 1 -15.33097,14.57502 15.33097,14.575017 0 0 1 -15.33097,-14.57502 15.33097,14.575017 0 0 1 15.33097,-14.575013 15.33097,14.575017 0 0 1 15.33097,14.575013 z" />
    <path
       id="path928-7"
       style="fill:#ffffff;stroke:#000000;stroke-width:1.5211;stroke-miterlimit:0;stroke-opacity:1;paint-order:markers stroke fill"
       d="m 158.42249,160.33557 a 15.33097,14.575017 0 0 1 -15.33097,14.57502 15.33097,14.575017 0 0 1 -15.33097,-14.57502 15.33097,14.575017 0 0 1 15.33097,-14.57502 15.33097,14.575017 0 0 1 15.33097,14.57502 z" />
    <path
       id="path928-0"
       style="fill:#ffffff;stroke:#000000;stroke-width:1.5211;stroke-miterlimit:0;stroke-opacity:1;paint-order:markers stroke fill"
       d="m 64.922488,160.33557 a 15.33097,14.575017 0 0 1 -15.33097,14.57502 15.33097,14.575017 0 0 1 -15.330969,-14.57502 15.33097,14.575017 0 0 1 15.330969,-14.57502 15.33097,14.575017 0 0 1 15.33097,14.57502 z" />
    <path
       id="path928-9"
       style="fill:#ffffff;stroke:#000000;stroke-width:1.5211;stroke-miterlimit:0;stroke-opacity:1;paint-order:markers stroke fill"
       d="M 64.922488,110.33556 A 15.33097,14.575017 0 0 1 49.591518,124.91058 15.33097,14.575017 0 0 1 34.260549,110.33556 15.33097,14.575017 0 0 1 49.591518,95.760547 15.33097,14.575017 0 0 1 64.922488,110.33556 Z" />
  </g>
</svg>
